<svg width="20" height="20" viewBox="0 0 20 20" fill="none" xmlns="http://www.w3.org/2000/svg">
<path d="M16.8316 2.5H3.16829C2.54285 2.5 2.23012 2.5 2.0136 2.64771C1.90636 2.72088 1.81774 2.81758 1.75468 2.93023C1.62738 3.15767 1.6585 3.46494 1.72073 4.07948C1.82461 5.1052 1.87654 5.61807 2.14848 5.98474C2.28399 6.16746 2.4558 6.32099 2.65341 6.43596C3.04995 6.66667 3.57192 6.66667 4.61586 6.66667H15.3841C16.428 6.66667 16.95 6.66667 17.3465 6.43596C17.5441 6.32099 17.7159 6.16746 17.8514 5.98474C18.1234 5.61807 18.1753 5.1052 18.2792 4.07948C18.3414 3.46494 18.3725 3.15767 18.2452 2.93023C18.1822 2.81758 18.0936 2.72088 17.9863 2.64771C17.7698 2.5 17.4571 2.5 16.8316 2.5Z" stroke="white" stroke-width="1.5" stroke-linecap="round" stroke-linejoin="round"/>
<path d="M2.5 6.66669L2.5 10.8674C2.5 13.994 2.5 15.5574 3.47631 16.5287C4.45262 17.5 6.02397 17.5 9.16667 17.5H10.8333C13.976 17.5 15.5474 17.5 16.5237 16.5287C17.5 15.5574 17.5 13.994 17.5 10.8674V6.66669" stroke="white" stroke-width="1.5" stroke-linecap="round" stroke-linejoin="round"/>
<path d="M8.33325 9.16669H11.6666" stroke="white" stroke-width="1.5" stroke-linecap="round"/>
</svg>
