<svg width="32" height="32" viewBox="0 0 32 32" fill="none" xmlns="http://www.w3.org/2000/svg">
<path d="M11.25 27C11.25 27.6904 10.6904 28.25 10 28.25C9.30964 28.25 8.75 27.6904 8.75 27C8.75 26.3096 9.30964 25.75 10 25.75C10.6904 25.75 11.25 26.3096 11.25 27Z" fill="#30363C" stroke="#300E57" stroke-width="1.5"/>
<path d="M24.25 27C24.25 27.6904 23.6904 28.25 23 28.25C22.3096 28.25 21.75 27.6904 21.75 27C21.75 26.3096 22.3096 25.75 23 25.75C23.6904 25.75 24.25 26.3096 24.25 27Z" fill="#30363C" stroke="#300E57" stroke-width="1.5"/>
<path d="M5.2875 9H27.7125L24.4125 20.55C24.2948 20.9692 24.0426 21.3381 23.6948 21.6001C23.3471 21.862 22.9229 22.0025 22.4875 22H10.5125C10.0771 22.0025 9.65293 21.862 9.30515 21.6001C8.95738 21.3381 8.70524 20.9692 8.5875 20.55L4.0625 4.725C4.0027 4.51594 3.8764 4.33207 3.70271 4.20125C3.52903 4.07042 3.31744 3.99977 3.1 4H1" fill="#56298A"/>
<path d="M5.2875 9H27.7125L24.4125 20.55C24.2948 20.9692 24.0426 21.3381 23.6948 21.6001C23.3471 21.862 22.9229 22.0025 22.4875 22H10.5125C10.0771 22.0025 9.65293 21.862 9.30515 21.6001C8.95738 21.3381 8.70524 20.9692 8.5875 20.55L4.0625 4.725C4.0027 4.51594 3.8764 4.33207 3.70271 4.20125C3.52903 4.07042 3.31744 3.99977 3.1 4H1" stroke="#300E57" stroke-width="2" stroke-linecap="round" stroke-linejoin="round"/>
<path d="M6 10H27L25 21L9.5 21.5L6 10Z" fill="#56298A"/>
</svg>
