<svg width="24" height="24" viewBox="0 0 24 24" fill="none" xmlns="http://www.w3.org/2000/svg">
<path d="M21.085 6.758C21.015 6.609 20.909 6.479 20.777 6.381C20.647 6.284 20.515 6.186 20.382 6.088V3.537C20.382 2.985 19.935 2.537 19.382 2.537C18.829 2.537 18.382 2.985 18.382 3.537V4.637C15.687 2.725 12.984 1 11.999 1C10.7 1 6.50896 3.927 3.22096 6.382C3.08796 6.482 2.98096 6.613 2.91096 6.765C2.86396 6.867 1.75696 9.327 1.75696 14.343C1.75696 16.508 1.95896 19.713 2.18896 21.201C2.24796 21.581 2.51896 21.893 2.88696 22.005C3.02096 22.046 6.23296 23 11.999 23C17.765 23 20.976 22.045 21.109 22.005C21.476 21.893 21.748 21.581 21.806 21.201C22.037 19.703 22.241 16.498 22.241 14.343C22.241 9.284 21.131 6.86 21.084 6.759L21.085 6.758ZM9.91496 20.954V16.881C9.91496 15.67 10.851 14.685 12 14.685C13.149 14.685 14.085 15.67 14.085 16.881V20.954C13.435 20.983 12.74 21 12 21C11.26 21 10.565 20.983 9.91496 20.954ZM19.917 20.243C19.213 20.402 17.915 20.65 16.085 20.819V16.881C16.085 14.567 14.253 12.685 12 12.685C9.74696 12.685 7.91496 14.567 7.91496 16.881V20.819C6.08496 20.651 4.78596 20.402 4.08096 20.243C3.90296 18.684 3.75796 16.111 3.75796 14.342C3.75796 10.618 4.41096 8.467 4.64596 7.815C7.58396 5.634 11.103 3.265 11.999 3.011C12.892 3.269 16.414 5.638 19.357 7.817C19.592 8.466 20.243 10.595 20.243 14.342C20.243 16.105 20.096 18.679 19.917 20.243Z" fill="#30363C"/>
</svg>
