<svg width="24" height="24" viewBox="0 0 24 24" fill="none" xmlns="http://www.w3.org/2000/svg">
<path d="M12 14.6846C10.851 14.6846 9.91504 15.6696 9.91504 16.8806V22.9566C10.568 22.9836 11.263 22.9996 12 22.9996C12.737 22.9996 13.432 22.9836 14.085 22.9566V16.8806C14.085 15.6696 13.149 14.6846 12 14.6846Z" fill="url(#paint0_linear_870_23984)"/>
<path d="M21.0851 6.758C21.0151 6.609 20.9091 6.479 20.7771 6.381C20.5921 6.243 20.4031 6.103 20.2131 5.963V3.505C20.2131 2.676 19.5411 2.005 18.7131 2.005C17.8851 2.005 17.2131 2.676 17.2131 3.505V3.82C14.9391 2.26 12.8421 1 12.0001 1C10.7011 1 6.51006 3.927 3.22206 6.382C3.08906 6.482 2.98206 6.613 2.91206 6.765C2.86506 6.867 1.75806 9.327 1.75806 14.343C1.75806 16.508 1.96006 19.713 2.19006 21.201C2.24906 21.581 2.52006 21.893 2.88806 22.005C2.98606 22.035 4.73006 22.553 7.91506 22.83V16.882C7.91506 14.568 9.74706 12.686 12.0001 12.686C14.2531 12.686 16.0851 14.568 16.0851 16.882V22.83C19.2701 22.554 21.0131 22.035 21.1101 22.006C21.4771 21.894 21.7491 21.582 21.8071 21.202C22.0381 19.704 22.2421 16.499 22.2421 14.344C22.2421 9.285 21.1321 6.861 21.0851 6.76V6.758Z" fill="url(#paint1_linear_870_23984)"/>
<defs>
<linearGradient id="paint0_linear_870_23984" x1="8.957" y1="18.8421" x2="14.9719" y2="18.8421" gradientUnits="userSpaceOnUse">
<stop stop-color="#300E57"/>
<stop offset="0.490385" stop-color="#56298A"/>
<stop offset="1" stop-color="#300E57"/>
</linearGradient>
<linearGradient id="paint1_linear_870_23984" x1="-2.94805" y1="11.915" x2="26.5985" y2="11.915" gradientUnits="userSpaceOnUse">
<stop stop-color="#300E57"/>
<stop offset="0.490385" stop-color="#56298A"/>
<stop offset="1" stop-color="#300E57"/>
</linearGradient>
</defs>
</svg>
