<svg width="20" height="20" viewBox="0 0 20 20" fill="#000000" xmlns="http://www.w3.org/2000/svg">
<g clip-path="url(#clip0_158_496)">
<path d="M7.4996 18.3333L7.29073 15.4093C7.17844 13.8372 8.42352 12.5 9.9996 12.5C11.5757 12.5 12.8207 13.8372 12.7085 15.4093L12.4996 18.3333" stroke="white" stroke-width="1.5"/>
<path d="M1.95964 11.0112C1.66545 9.09689 1.51836 8.13972 1.88028 7.29117C2.2422 6.44262 3.04516 5.86205 4.65109 4.70091L5.85097 3.83335C7.84872 2.38891 8.84759 1.66669 10.0001 1.66669C11.1527 1.66669 12.1516 2.38891 14.1493 3.83335L15.3492 4.70091C16.9551 5.86205 17.7581 6.44262 18.12 7.29117C18.4819 8.13972 18.3348 9.09689 18.0406 11.0112L17.7898 12.6437C17.3727 15.3575 17.1642 16.7143 16.191 17.5239C15.2177 18.3334 13.7949 18.3334 10.9492 18.3334H9.05113C6.20542 18.3334 4.78257 18.3334 3.80931 17.5239C2.83605 16.7143 2.62753 15.3575 2.2105 12.6437L1.95964 11.0112Z" stroke="white" stroke-width="1.5" stroke-linejoin="round"/>
</g>
<defs>
<clipPath id="clip0_158_496">
<rect width="20" height="20" fill="white"/>
</clipPath>
</defs>
</svg>
