<svg width="24" height="24" viewBox="0 0 24 24" fill="none" xmlns="http://www.w3.org/2000/svg">
<path d="M11.994 1C4.929 1.044 1 5.011 1 12.019C1 18.91 4.933 22.959 12.006 23C19.168 22.958 22.867 19.263 23 11.983C22.878 4.946 18.974 1.045 11.994 1ZM12.006 21C5.98 20.965 3.118 18.105 3 12C3.113 5.981 6.059 3.037 11.994 3C17.868 3.038 20.898 6.072 21 11.981C20.888 18.098 18.026 20.964 12.006 21Z" fill="black"/>
<path d="M12.5671 10.6387H11.4331C10.8811 10.6387 10.4331 11.0867 10.4331 11.6387C10.4331 12.1907 10.8811 12.6387 11.4331 12.6387H11.5671V16.0707C11.5671 16.6227 12.0151 17.0707 12.5671 17.0707C13.1191 17.0707 13.5671 16.6227 13.5671 16.0707V11.6387C13.5671 11.0867 13.1201 10.6387 12.5671 10.6387Z" fill="black"/>
<path d="M12 8.92964C12.5517 8.92964 12.999 8.48237 12.999 7.93064C12.999 7.37891 12.5517 6.93164 12 6.93164C11.4482 6.93164 11.001 7.37891 11.001 7.93064C11.001 8.48237 11.4482 8.92964 12 8.92964Z" fill="black"/>
</svg>
