<svg width="21" height="22" viewBox="0 0 21 22" fill="none" xmlns="http://www.w3.org/2000/svg">
<path d="M10.1528 8.04389C8.51562 8.04389 7.19575 9.37645 7.19575 11.0009C7.19575 12.6254 8.52831 13.9579 10.1528 13.9579C11.7772 13.9579 13.1098 12.6254 13.1098 11.0009C13.1098 9.37645 11.7772 8.04389 10.1528 8.04389ZM19.0365 11.0009C19.0365 9.76987 19.0365 8.56423 18.973 7.3332C18.9096 5.9118 18.5796 4.6427 17.5389 3.61473C16.4983 2.57406 15.2419 2.2441 13.8205 2.18064C12.5894 2.11719 11.3838 2.11719 10.1528 2.11719C8.92173 2.11719 7.71608 2.11719 6.48505 2.18064C5.06366 2.2441 3.79456 2.57406 2.76658 3.61473C1.72592 4.65539 1.39595 5.9118 1.3325 7.3332C1.26904 8.56423 1.26904 9.76987 1.26904 11.0009C1.26904 12.2319 1.26904 13.4376 1.3325 14.6686C1.39595 16.09 1.72592 17.3591 2.76658 18.3871C3.80725 19.4277 5.06366 19.7577 6.48505 19.8212C7.71608 19.8846 8.92173 19.8846 10.1528 19.8846C11.3838 19.8846 12.5894 19.8846 13.8205 19.8212C15.2419 19.7577 16.511 19.4277 17.5389 18.3871C18.5796 17.3464 18.9096 16.09 18.973 14.6686C19.0492 13.4503 19.0365 12.2319 19.0365 11.0009ZM10.1528 15.557C7.62725 15.557 5.59668 13.5264 5.59668 11.0009C5.59668 8.47539 7.62725 6.44483 10.1528 6.44483C12.6783 6.44483 14.7088 8.47539 14.7088 11.0009C14.7088 13.5264 12.6783 15.557 10.1528 15.557ZM14.8992 7.32051C14.3154 7.32051 13.8332 6.85094 13.8332 6.25446C13.8332 5.65798 14.3027 5.18842 14.8992 5.18842C15.4957 5.18842 15.9652 5.65798 15.9652 6.25446C15.9685 6.39347 15.9431 6.53166 15.8907 6.66047C15.8383 6.78927 15.76 6.90593 15.6607 7.00323C15.5634 7.10257 15.4467 7.18086 15.3179 7.23326C15.1891 7.28565 15.0509 7.31103 14.9119 7.30782L14.8992 7.32051Z" fill="url(#paint0_linear_870_23961)"/>
<defs>
<linearGradient id="paint0_linear_870_23961" x1="1.26904" y1="11.0009" x2="19.0373" y2="11.0009" gradientUnits="userSpaceOnUse">
<stop stop-color="#FCF0D5"/>
<stop offset="0.5" stop-color="#F6C17A"/>
<stop offset="1" stop-color="#E1A977"/>
</linearGradient>
</defs>
</svg>
