<svg width="20" height="20" viewBox="0 0 20 20" fill="none" xmlns="http://www.w3.org/2000/svg">
<path d="M5.83337 15C4.30927 15.3431 3.33337 15.8702 3.33337 16.4614C3.33337 17.4952 6.31814 18.3333 10 18.3333C13.6819 18.3333 16.6667 17.4952 16.6667 16.4614C16.6667 15.8702 15.6908 15.3431 14.1667 15" stroke="white" stroke-width="1.5" stroke-linecap="round"/>
<path d="M12.0834 7.50002C12.0834 8.65061 11.1507 9.58335 10.0001 9.58335C8.84949 9.58335 7.91675 8.65061 7.91675 7.50002C7.91675 6.34943 8.84949 5.41669 10.0001 5.41669C11.1507 5.41669 12.0834 6.34943 12.0834 7.50002Z" stroke="white" stroke-width="1.5"/>
<path d="M11.0479 14.578C10.7668 14.8487 10.3912 15 10.0002 15C9.60924 15 9.23357 14.8487 8.9525 14.578C6.37867 12.084 2.92941 9.29797 4.61151 5.25313C5.521 3.06612 7.7042 1.66669 10.0002 1.66669C12.2962 1.66669 14.4794 3.06612 15.3889 5.25313C17.0689 9.29287 13.6281 12.0926 11.0479 14.578Z" stroke="white" stroke-width="1.5"/>
</svg>
