<svg width="32" height="32" viewBox="0 0 32 32" fill="none" xmlns="http://www.w3.org/2000/svg">
<path d="M10.6666 16H21.3333M10.6666 16C10.6666 15.0664 13.3257 13.3221 14 12.6667M10.6666 16C10.6666 16.9337 13.3257 18.678 14 19.3334" stroke="#30363C" stroke-width="1.5" stroke-linecap="round" stroke-linejoin="round"/>
<path d="M3.33331 16C3.33331 10.0289 3.33331 7.04332 5.1883 5.18833C7.04329 3.33334 10.0289 3.33334 16 3.33334C21.9711 3.33334 24.9567 3.33334 26.8117 5.18833C28.6666 7.04332 28.6666 10.0289 28.6666 16C28.6666 21.9711 28.6666 24.9567 26.8117 26.8117C24.9567 28.6667 21.9711 28.6667 16 28.6667C10.0289 28.6667 7.04329 28.6667 5.1883 26.8117C3.33331 24.9567 3.33331 21.9711 3.33331 16Z" stroke="#30363C" stroke-width="1.5"/>
</svg>
