<svg width="32" height="32" viewBox="0 0 32 32" fill="none" xmlns="http://www.w3.org/2000/svg">
<path d="M3.37339 19.6929C3.08985 21.5516 4.35749 22.8417 5.90957 23.4847C11.8599 25.9497 20.1404 25.9497 26.0908 23.4847C27.6428 22.8417 28.9105 21.5516 28.6269 19.6929C28.4527 18.5506 27.591 17.5994 26.9527 16.6706C26.1165 15.4391 26.0335 14.0959 26.0333 12.6667C26.0333 7.1439 21.5413 2.66675 16.0002 2.66675C10.459 2.66675 5.967 7.1439 5.967 12.6667C5.96688 14.0958 5.88379 15.4391 5.04764 16.6706C4.40928 17.5994 3.54765 18.5506 3.37339 19.6929Z" fill="#01A0E2" stroke="#01A0E2" stroke-width="1.5" stroke-linecap="round" stroke-linejoin="round"/>
<path d="M10.667 25.3335C11.2783 27.6338 13.4344 29.3335 16.0003 29.3335C18.5663 29.3335 20.7223 27.6338 21.3337 25.3335" stroke="#01A0E2" stroke-width="1.5" stroke-linecap="round" stroke-linejoin="round"/>
<circle cx="24.6667" cy="7.66667" r="5.16667" fill="#01A0E2" stroke="white"/>
</svg>
