<svg width="32" height="32" viewBox="0 0 32 32" fill="none" xmlns="http://www.w3.org/2000/svg">
<path d="M3.37315 19.6928C3.08961 21.5515 4.35725 22.8417 5.90932 23.4846C11.8597 25.9496 20.1402 25.9496 26.0905 23.4846C27.6426 22.8417 28.9102 21.5516 28.6267 19.6928C28.4524 18.5506 27.5908 17.5994 26.9524 16.6706C26.1163 15.439 26.0332 14.0958 26.0331 12.6667C26.0331 7.14384 21.5411 2.66669 15.9999 2.66669C10.4588 2.66669 5.96675 7.14384 5.96675 12.6667C5.96663 14.0958 5.88355 15.439 5.0474 16.6706C4.40904 17.5994 3.5474 18.5506 3.37315 19.6928Z" stroke="#141B34" stroke-width="1.5" stroke-linecap="round" stroke-linejoin="round"/>
<path d="M10.6665 25.3334C11.2778 27.6337 13.4339 29.3334 15.9998 29.3334C18.5658 29.3334 20.7219 27.6337 21.3332 25.3334" stroke="#141B34" stroke-width="1.5" stroke-linecap="round" stroke-linejoin="round"/>
</svg>
