<svg width="32" height="32" viewBox="0 0 32 32" fill="none" xmlns="http://www.w3.org/2000/svg">
<path d="M21.7442 5.84534C20.9562 5.84534 20.5622 5.84534 20.2032 5.71215C20.1534 5.69365 20.1042 5.67329 20.0559 5.65112C19.7079 5.49148 19.4293 5.21286 18.872 4.65563C17.5895 3.37311 16.9482 2.73184 16.1592 2.67271C16.0531 2.66476 15.9466 2.66476 15.8405 2.67271C15.0514 2.73184 14.4102 3.37311 13.1276 4.65563C12.5704 5.21286 12.2918 5.49148 11.9438 5.65112C11.8955 5.67329 11.8463 5.69365 11.7965 5.71215C11.4375 5.84534 11.0435 5.84534 10.2554 5.84534H10.1101C8.09955 5.84534 7.09428 5.84534 6.46969 6.46993C5.84509 7.09452 5.84509 8.09979 5.84509 10.1103V10.2557C5.84509 11.0437 5.84509 11.4377 5.7119 11.7967C5.6934 11.8466 5.67305 11.8957 5.65087 11.944C5.49123 12.292 5.21262 12.5707 4.65539 13.1279C3.37286 14.4104 2.7316 15.0517 2.67247 15.8407C2.66452 15.9468 2.66452 16.0533 2.67247 16.1594C2.7316 16.9485 3.37286 17.5897 4.65539 18.8723C5.21262 19.4295 5.49123 19.7081 5.65087 20.0561C5.67305 20.1045 5.6934 20.1536 5.7119 20.2035C5.84509 20.5624 5.84509 20.9564 5.84509 21.7445V21.8898C5.84509 23.9004 5.84509 24.9056 6.46969 25.5302C7.09428 26.1548 8.09955 26.1548 10.1101 26.1548H10.2554C11.0435 26.1548 11.4375 26.1548 11.7965 26.288C11.8463 26.3065 11.8955 26.3269 11.9438 26.349C12.2918 26.5087 12.5704 26.7873 13.1276 27.3445C14.4102 28.6271 15.0514 29.2683 15.8405 29.3275C15.9466 29.3354 16.0531 29.3354 16.1592 29.3275C16.9482 29.2683 17.5895 28.6271 18.872 27.3445C19.4293 26.7873 19.7079 26.5087 20.0559 26.349C20.1042 26.3269 20.1534 26.3065 20.2032 26.288C20.5622 26.1548 20.9562 26.1548 21.7442 26.1548H21.8896C23.9001 26.1548 24.9054 26.1548 25.53 25.5302C26.1546 24.9056 26.1546 23.9004 26.1546 21.8898V21.7445C26.1546 20.9564 26.1546 20.5624 26.2878 20.2035C26.3063 20.1536 26.3266 20.1045 26.3488 20.0561C26.5084 19.7081 26.7871 19.4295 27.3443 18.8723C28.6268 17.5897 29.2681 16.9485 29.3272 16.1594C29.3352 16.0533 29.3352 15.9468 29.3272 15.8407C29.2681 15.0517 28.6268 14.4104 27.3443 13.1279C26.7871 12.5707 26.5084 12.292 26.3488 11.944C26.3266 11.8957 26.3063 11.8466 26.2878 11.7967C26.1546 11.4377 26.1546 11.0437 26.1546 10.2557V10.1103C26.1546 8.09979 26.1546 7.09452 25.53 6.46993C24.9054 5.84534 23.9001 5.84534 21.8896 5.84534H21.7442Z" fill="#01A0E2" stroke="#01A0E2" stroke-width="1.5"/>
<path fill-rule="evenodd" clip-rule="evenodd" d="M15.9997 21.3335H16.0117H15.9997Z" fill="#01A0E2"/>
<path d="M15.9997 21.3335H16.0117" stroke="white" stroke-width="2" stroke-linecap="round" stroke-linejoin="round"/>
<path d="M16 17.3335L16 10.6668" stroke="white" stroke-width="1.5" stroke-linecap="round" stroke-linejoin="round"/>
</svg>
