<svg width="32" height="32" viewBox="0 0 32 32" fill="none" xmlns="http://www.w3.org/2000/svg">
<path d="M15.9997 21.3334H16.0117" stroke="#141B34" stroke-width="2" stroke-linecap="round" stroke-linejoin="round"/>
<path d="M16 17.3334L16 10.6667" stroke="#141B34" stroke-width="1.5" stroke-linecap="round" stroke-linejoin="round"/>
<path d="M21.7443 5.84528C20.9563 5.84528 20.5623 5.84528 20.2033 5.71209C20.1535 5.69359 20.1043 5.67323 20.056 5.65106C19.708 5.49141 19.4294 5.2128 18.8722 4.65557C17.5896 3.37304 16.9484 2.73178 16.1593 2.67265C16.0532 2.6647 15.9467 2.6647 15.8406 2.67265C15.0516 2.73178 14.4103 3.37304 13.1278 4.65557C12.5705 5.2128 12.2919 5.49141 11.9439 5.65106C11.8956 5.67323 11.8464 5.69359 11.7966 5.71209C11.4376 5.84528 11.0436 5.84528 10.2556 5.84528H10.1102C8.09967 5.84528 7.0944 5.84528 6.46981 6.46987C5.84521 7.09446 5.84521 8.09973 5.84521 10.1103V10.2556C5.84521 11.0437 5.84521 11.4377 5.71202 11.7966C5.69353 11.8465 5.67317 11.8956 5.651 11.944C5.49135 12.292 5.21274 12.5706 4.65551 13.1278C3.37298 14.4104 2.73172 15.0516 2.67259 15.8407C2.66464 15.9467 2.66464 16.0533 2.67259 16.1594C2.73172 16.9484 3.37298 17.5897 4.65551 18.8722C5.21274 19.4294 5.49135 19.7081 5.651 20.0561C5.67317 20.1044 5.69353 20.1535 5.71202 20.2034C5.84521 20.5624 5.84521 20.9564 5.84521 21.7444V21.8898C5.84521 23.9003 5.84521 24.9056 6.46981 25.5302C7.0944 26.1548 8.09967 26.1548 10.1102 26.1548H10.2556C11.0436 26.1548 11.4376 26.1548 11.7966 26.288C11.8464 26.3065 11.8956 26.3268 11.9439 26.349C12.2919 26.5086 12.5705 26.7872 13.1278 27.3445C14.4103 28.627 15.0516 29.2683 15.8406 29.3274C15.9467 29.3353 16.0532 29.3353 16.1593 29.3274C16.9484 29.2683 17.5896 28.627 18.8722 27.3445C19.4294 26.7872 19.708 26.5086 20.056 26.349C20.1043 26.3268 20.1535 26.3065 20.2033 26.288C20.5623 26.1548 20.9563 26.1548 21.7443 26.1548H21.8897C23.9002 26.1548 24.9055 26.1548 25.5301 25.5302C26.1547 24.9056 26.1547 23.9003 26.1547 21.8898V21.7444C26.1547 20.9564 26.1547 20.5624 26.2879 20.2034C26.3064 20.1535 26.3267 20.1044 26.3489 20.0561C26.5086 19.7081 26.7872 19.4294 27.3444 18.8722C28.6269 17.5897 29.2682 16.9484 29.3273 16.1594C29.3353 16.0533 29.3353 15.9467 29.3273 15.8407C29.2682 15.0516 28.6269 14.4104 27.3444 13.1278C26.7872 12.5706 26.5086 12.292 26.3489 11.944C26.3267 11.8956 26.3064 11.8465 26.2879 11.7966C26.1547 11.4377 26.1547 11.0437 26.1547 10.2556V10.1103C26.1547 8.09973 26.1547 7.09446 25.5301 6.46987C24.9055 5.84528 23.9002 5.84528 21.8897 5.84528H21.7443Z" stroke="#141B34" stroke-width="1.5"/>
</svg>
