<svg width="24" height="24" viewBox="0 0 24 24" fill="none" xmlns="http://www.w3.org/2000/svg">
<path d="M22.26 2.22969C22.159 2.01369 21.986 1.83969 21.769 1.74169C21.704 1.71169 15.672 -0.947314 9.86099 4.24969C8.19799 4.05869 5.39999 4.07869 3.80399 5.96769C2.36899 7.66469 1.17599 11.4217 1.04499 11.8447C0.950992 12.1477 1.00599 12.4777 1.19399 12.7337C1.38199 12.9897 1.67899 13.1407 1.99599 13.1417L3.72299 13.1477C4.05799 13.9297 4.73799 15.2607 5.93599 16.6427L5.03199 17.5467C4.64099 17.9367 4.63099 18.5807 5.03199 18.9607C5.61599 19.5157 6.25099 19.1557 6.44699 18.9607L7.35099 18.0567C8.74099 19.2627 10.068 19.9387 10.85 20.2707L10.856 21.9927C10.856 22.3097 11.01 22.6047 11.264 22.7957C11.625 23.0667 12.055 22.9747 12.152 22.9437C12.575 22.8127 16.336 21.6197 18.033 20.1867C19.926 18.5897 19.946 15.7957 19.75 14.1157C24.972 8.29169 22.29 2.29569 22.26 2.22969ZM5.33199 7.25869C5.96699 6.50869 7.01899 6.24069 8.02299 6.18169C6.96599 7.44069 4.74999 10.1537 3.93899 11.1487L3.39999 11.1467C3.88499 9.83669 4.62499 8.09569 5.33199 7.25869ZM9.83199 7.13969C14.376 1.82969 19.237 2.96969 20.582 3.42569C21.043 4.76869 22.184 9.59469 16.851 14.1507C15.886 14.9757 12.814 17.4947 11.659 18.4407C10.93 18.1327 9.46699 17.3947 8.03299 15.9617C6.61099 14.5407 5.86499 13.0677 5.55299 12.3347C6.49799 11.1767 9.00999 8.10269 9.83399 7.13969H9.83199ZM16.743 18.6597C15.906 19.3657 14.162 20.1057 12.85 20.5917L12.848 20.0527C13.843 19.2377 16.562 17.0097 17.816 15.9557C17.757 16.9447 17.498 18.0237 16.743 18.6597Z" fill="#30363C"/>
<path d="M16.4902 6.51074C15.9382 6.51074 15.4912 6.95774 15.4912 7.50974C15.4912 8.06174 15.9382 8.50874 16.4902 8.50874C17.0422 8.50874 17.4892 8.06174 17.4892 7.50974C17.4892 6.95774 17.0422 6.51074 16.4902 6.51074Z" fill="#30363C"/>
<path d="M13.6802 9.32715C13.1282 9.32715 12.6812 9.77415 12.6812 10.3261C12.6812 10.8781 13.1282 11.3251 13.6802 11.3251C14.2322 11.3251 14.6792 10.8781 14.6792 10.3261C14.6792 9.77415 14.2322 9.32715 13.6802 9.32715Z" fill="#30363C"/>
<path d="M10.8701 12.1367C10.3181 12.1367 9.87109 12.5837 9.87109 13.1357C9.87109 13.6877 10.3181 14.1347 10.8701 14.1347C11.4221 14.1347 11.8691 13.6877 11.8691 13.1357C11.8691 12.5837 11.4221 12.1367 10.8701 12.1367Z" fill="#30363C"/>
</svg>
