<svg width="24" height="24" viewBox="0 0 24 24" fill="none" xmlns="http://www.w3.org/2000/svg">
<path d="M22.295 2.2234C22.192 2.0024 22.015 1.8274 21.795 1.7274C21.725 1.6954 14.685 -1.3996 8.55201 5.7434C7.53801 6.9244 4.10801 11.1204 3.96301 11.2974C3.74901 11.5604 3.67901 11.9114 3.77701 12.2354C3.80301 12.3214 4.33401 14.0284 5.86801 15.9404L5.12601 16.6794C4.53001 17.2734 4.52801 18.2384 5.12201 18.8344L5.12401 18.8364C5.71801 19.4304 6.68201 19.4314 7.27701 18.8384L8.02601 18.0924C9.96301 19.6394 11.673 20.1554 11.758 20.1804C12.08 20.2744 12.427 20.2054 12.686 19.9934C12.865 19.8474 17.066 16.4244 18.251 15.4154C25.461 9.2754 22.327 2.2934 22.295 2.2234ZM9.74901 14.2364C9.14701 13.6344 9.14701 12.6584 9.74901 12.0564C10.351 11.4544 11.327 11.4544 11.929 12.0564C12.531 12.6584 12.531 13.6344 11.929 14.2364C11.327 14.8384 10.351 14.8384 9.74901 14.2364ZM12.941 11.0444C12.339 10.4424 12.339 9.4664 12.941 8.8644C13.543 8.2624 14.519 8.2624 15.121 8.8644C15.723 9.4664 15.723 10.4424 15.121 11.0444C14.519 11.6464 13.543 11.6464 12.941 11.0444ZM16.133 7.8524C15.531 7.2504 15.531 6.2744 16.133 5.6724C16.735 5.0704 17.711 5.0704 18.313 5.6724C18.915 6.2744 18.915 7.2504 18.313 7.8524C17.711 8.4544 16.735 8.4544 16.133 7.8524Z" fill="url(#paint0_linear_809_9156)"/>
<path d="M2.38798 10.0131C3.26198 8.94511 6.08798 5.49311 7.00998 4.41911C7.70298 3.61111 8.40898 2.91811 9.11698 2.32411C7.46798 2.22011 5.15698 2.42711 3.76298 4.07011C2.34998 5.73611 1.17698 9.41711 1.04798 9.83111C0.951978 10.1391 0.997978 10.4811 1.19798 10.7341C1.32998 10.9001 1.61698 11.0881 1.81098 11.1281C1.92198 10.7271 2.11598 10.3461 2.38798 10.0131Z" fill="url(#paint1_linear_809_9156)"/>
<path d="M21.6719 14.8516C21.0659 15.5756 20.3619 16.2906 19.5469 16.9846C18.4629 17.9076 15.0069 20.7286 13.9729 21.5706C13.6309 21.8496 13.2459 22.0476 12.8409 22.1616C12.8819 22.3526 13.0369 22.6066 13.2329 22.7676C13.4819 22.9716 13.8269 23.0146 14.1349 22.9196C14.5509 22.7916 18.2479 21.6226 19.9189 20.2176C21.5739 18.8246 21.7809 16.5116 21.6729 14.8526L21.6719 14.8516Z" fill="url(#paint2_linear_809_9156)"/>
<defs>
<linearGradient id="paint0_linear_809_9156" x1="-0.692724" y1="10.6274" x2="27.0967" y2="10.6274" gradientUnits="userSpaceOnUse">
<stop stop-color="#300E57"/>
<stop offset="0.490385" stop-color="#56298A"/>
<stop offset="1" stop-color="#300E57"/>
</linearGradient>
<linearGradient id="paint1_linear_809_9156" x1="-0.865138" y1="6.71493" x2="10.8433" y2="6.71493" gradientUnits="userSpaceOnUse">
<stop stop-color="#300E57"/>
<stop offset="0.490385" stop-color="#56298A"/>
<stop offset="1" stop-color="#300E57"/>
</linearGradient>
<linearGradient id="paint2_linear_809_9156" x1="10.8064" y1="18.9096" x2="23.5801" y2="18.9096" gradientUnits="userSpaceOnUse">
<stop stop-color="#300E57"/>
<stop offset="0.490385" stop-color="#56298A"/>
<stop offset="1" stop-color="#300E57"/>
</linearGradient>
</defs>
</svg>
