<svg width="20" height="19" viewBox="0 0 20 19" fill="none" xmlns="http://www.w3.org/2000/svg">
<path d="M10.031 0.117188C15.1712 0.117188 19.3378 4.28387 19.3378 9.42404C19.3378 14.5642 15.1712 18.7309 10.031 18.7309C8.38624 18.7337 6.77041 18.2984 5.34964 17.4698L0.727858 18.7309L1.98614 14.1072C1.15687 12.686 0.721253 11.0695 0.724135 9.42404C0.724135 4.28387 4.89081 0.117188 10.031 0.117188ZM6.85921 5.04982L6.67308 5.05727C6.55273 5.06556 6.43514 5.09717 6.32686 5.15033C6.22595 5.20758 6.1338 5.27904 6.05324 5.36253C5.94156 5.4677 5.87827 5.5589 5.81033 5.64732C5.46609 6.09489 5.28075 6.64437 5.28356 7.20901C5.28542 7.66505 5.40455 8.10898 5.59069 8.52407C5.97134 9.36355 6.59769 10.2523 7.42414 11.076C7.62331 11.2742 7.81875 11.4734 8.02908 11.6586C9.05603 12.5627 10.2797 13.2147 11.6029 13.5628L12.1315 13.6438C12.3037 13.6531 12.4759 13.64 12.649 13.6317C12.92 13.6174 13.1846 13.544 13.4243 13.4167C13.546 13.3537 13.665 13.2854 13.7807 13.2119C13.7807 13.2119 13.8201 13.1852 13.8971 13.1282C14.0227 13.0351 14.0999 12.969 14.2042 12.8601C14.2824 12.7795 14.3475 12.6858 14.3996 12.5791C14.4722 12.4274 14.5448 12.1379 14.5746 11.8969C14.5969 11.7126 14.5904 11.6121 14.5876 11.5497C14.5839 11.4501 14.5011 11.3468 14.4108 11.3031L13.8691 11.0602C13.8691 11.0602 13.0594 10.7075 12.5643 10.4822C12.5125 10.4597 12.457 10.4467 12.4005 10.4441C12.3368 10.4374 12.2725 10.4445 12.2118 10.4649C12.1511 10.4853 12.0955 10.5185 12.0487 10.5623C12.0441 10.5604 11.9817 10.6135 11.3088 11.4287C11.2702 11.4806 11.217 11.5199 11.156 11.5414C11.095 11.5629 11.029 11.5658 10.9663 11.5497C10.9057 11.5336 10.8463 11.513 10.7886 11.4883C10.6732 11.4399 10.6331 11.4213 10.554 11.3878C10.0197 11.155 9.52511 10.8401 9.0882 10.4543C8.97094 10.3519 8.86205 10.2403 8.75037 10.1323C8.38424 9.78162 8.06515 9.38494 7.80107 8.95218L7.74616 8.86377C7.70731 8.80402 7.67546 8.74 7.65123 8.67298C7.61586 8.53617 7.708 8.42635 7.708 8.42635C7.708 8.42635 7.93415 8.17878 8.03932 8.04476C8.1417 7.91447 8.22825 7.7879 8.28409 7.69762C8.39391 7.52079 8.42835 7.33931 8.37065 7.19877C8.11005 6.56218 7.84078 5.92901 7.56281 5.29924C7.5079 5.17453 7.34503 5.08519 7.19705 5.0675C7.14679 5.0613 7.09654 5.05633 7.04628 5.05261C6.92132 5.04544 6.79601 5.04669 6.67121 5.05633L6.85921 5.04982Z" fill="url(#paint0_linear_870_23968)"/>
<defs>
<linearGradient id="paint0_linear_870_23968" x1="0.724121" y1="9.42405" x2="19.3378" y2="9.42405" gradientUnits="userSpaceOnUse">
<stop stop-color="#FCF0D5"/>
<stop offset="0.5" stop-color="#F6C17A"/>
<stop offset="1" stop-color="#E1A977"/>
</linearGradient>
</defs>
</svg>
