<svg width="22" height="22" viewBox="0 0 22 22" fill="none" xmlns="http://www.w3.org/2000/svg">
<g clip-path="url(#clip0_870_23954)">
<path d="M0.47324 10.8686C0.472721 12.717 0.963273 14.5219 1.89605 16.1127L0.384033 21.5481L6.0337 20.0896C7.59633 20.9271 9.34714 21.366 11.1263 21.3661H11.131C17.0044 21.3661 21.7854 16.6606 21.7879 10.8769C21.7891 8.07425 20.6815 5.43886 18.6692 3.45613C16.6573 1.47357 13.9815 0.381162 11.1306 0.379883C5.25648 0.379883 0.475752 5.08515 0.473327 10.8686" fill="url(#paint0_linear_870_23954)"/>
<path d="M0.0926715 10.8649C0.0920653 12.7799 0.6002 14.6493 1.56624 16.2971L0 21.9273L5.85225 20.4165C7.46473 21.2821 9.28023 21.7385 11.1276 21.7392H11.1324C17.2165 21.7392 22.1693 16.8644 22.1719 10.8736C22.1729 7.97031 21.0255 5.24018 18.9414 3.18642C16.8569 1.13291 14.0855 0.0011938 11.1324 0C5.04722 0 0.0950966 4.87411 0.0926715 10.8649ZM3.5779 16.0133L3.35939 15.6718C2.44081 14.2337 1.95598 12.572 1.95667 10.8656C1.95857 5.88619 6.07457 1.83504 11.1358 1.83504C13.5869 1.83606 15.8903 2.77678 17.6228 4.48357C19.3553 6.19053 20.3086 8.4596 20.308 10.8729C20.3057 15.8524 16.1896 19.904 11.1324 19.904H11.1287C9.48203 19.9032 7.86703 19.4678 6.4586 18.645L6.12342 18.4493L2.65058 19.3458L3.5779 16.0133Z" fill="url(#paint1_linear_870_23954)"/>
<path d="M8.37325 6.32225C8.1666 5.87005 7.94912 5.86093 7.75261 5.853C7.59169 5.84618 7.40773 5.84669 7.22395 5.84669C7.03999 5.84669 6.7411 5.91482 6.48846 6.18641C6.23557 6.45825 5.52295 7.11518 5.52295 8.4513C5.52295 9.78742 6.51142 11.0788 6.64921 11.2601C6.78718 11.4412 8.55746 14.2708 11.3612 15.3594C13.6913 16.264 14.1655 16.0841 14.6712 16.0387C15.177 15.9935 16.3032 15.382 16.533 14.7478C16.763 14.1137 16.763 13.5702 16.694 13.4566C16.6251 13.3435 16.4411 13.2755 16.1653 13.1398C15.8894 13.004 14.5332 12.3469 14.2804 12.2563C14.0275 12.1657 13.8436 12.1205 13.6597 12.3925C13.4757 12.664 12.9475 13.2755 12.7865 13.4566C12.6257 13.6382 12.4646 13.6608 12.1889 13.5249C11.9129 13.3887 11.0245 13.1023 9.97057 12.1771C9.15056 11.4573 8.59696 10.5683 8.43604 10.2964C8.27512 10.0249 8.4188 9.87772 8.55712 9.74239C8.68106 9.62071 8.83305 9.42527 8.97111 9.26675C9.10864 9.10815 9.15455 8.99499 9.24652 8.81387C9.33859 8.63259 9.29251 8.47398 9.22366 8.33815C9.15455 8.20231 8.61852 6.8592 8.37325 6.32225Z" fill="white"/>
</g>
<defs>
<linearGradient id="paint0_linear_870_23954" x1="1070.58" y1="2117.2" x2="1070.58" y2="0.379883" gradientUnits="userSpaceOnUse">
<stop stop-color="#1FAF38"/>
<stop offset="1" stop-color="#60D669"/>
</linearGradient>
<linearGradient id="paint1_linear_870_23954" x1="1108.59" y1="2192.73" x2="1108.59" y2="0" gradientUnits="userSpaceOnUse">
<stop stop-color="#F9F9F9"/>
<stop offset="1" stop-color="white"/>
</linearGradient>
<clipPath id="clip0_870_23954">
<rect width="22" height="22" fill="white"/>
</clipPath>
</defs>
</svg>
